####
#
# OBJ File Generated by Meshlab
#
####
# Object garbage_box_final.obj
#
# Vertices: 32
# Faces: 64
#
####
vn -1.570796 -1.570796 -1.570795
v -23.099998 -23.099998 -20.020000 0.752941 0.752941 0.752941
vn -1.570796 1.570796 -1.570796
v -23.099998 23.099998 -20.020000 0.752941 0.752941 0.752941
vn -1.570796 -1.570796 1.570796
v -23.099998 -23.099998 20.020000 0.752941 0.752941 0.752941
vn 1.570796 -1.570796 1.570795
v 23.099998 -23.099998 20.020000 0.752941 0.752941 0.752941
vn 1.570796 -1.570796 4.712389
v 15.400000 -23.099998 20.020000 0.752941 0.752941 0.752941
vn 1.570796 -4.712389 -1.570796
v 15.400000 -23.099998 13.860000 0.752941 0.752941 0.752941
vn -1.570796 -4.712389 -1.570796
v -15.400000 -23.099998 13.860000 0.752941 0.752941 0.752941
vn -1.570796 -1.570796 -4.712389
v 20.020000 20.020000 -20.020000 0.752941 0.752941 0.752941
vn 1.570796 1.570793 -1.570794
v 23.099998 23.099998 -20.020000 0.752941 0.752941 0.752941
vn -1.570796 1.570796 -4.712388
v 20.020000 -20.020000 -20.020000 0.752941 0.752941 0.752941
vn -1.570796 4.712389 -1.570796
v -15.400000 23.099998 13.860000 0.752941 0.752941 0.752941
vn -1.570796 1.570796 4.712389
v -15.400000 23.099998 20.020000 0.752941 0.752941 0.752941
vn 1.570796 1.570796 4.712389
v 15.400000 23.099998 20.020000 0.752941 0.752941 0.752941
vn 1.570796 1.570796 1.570796
v 23.099998 23.099998 20.020000 0.752941 0.752941 0.752941
vn -1.570796 -1.570796 4.712389
v -15.400000 -23.099998 20.020000 0.752941 0.752941 0.752941
vn -1.570796 1.570796 1.570795
v -23.099998 23.099998 20.020000 0.752941 0.752941 0.752941
vn 1.570796 -1.570796 4.712388
v -20.020000 20.020000 20.020000 0.752941 0.752941 0.752941
vn 1.570796 1.570796 4.712388
v -20.020000 -20.020000 20.020000 0.752941 0.752941 0.752941
vn -1.570796 -1.570796 4.712388
v 20.020000 20.020000 20.020000 0.752941 0.752941 0.752941
vn -1.570796 1.570796 1.570796
v -15.400000 38.500000 20.020000 0.752941 0.752941 0.752941
vn -1.570796 1.570796 4.712388
v 20.020000 -20.020000 20.020000 0.752941 0.752941 0.752941
vn -1.570796 -1.570796 -1.570796
v -15.400000 -38.500000 13.860000 0.752941 0.752941 0.752941
vn -1.570796 -1.570796 1.570796
v -15.400000 -38.500000 20.020000 0.752941 0.752941 0.752941
vn 1.570796 -1.570796 -1.570796
v 15.400000 -38.500000 13.860000 0.752941 0.752941 0.752941
vn 1.570796 -1.570796 1.570796
v 15.400000 -38.500000 20.020000 0.752941 0.752941 0.752941
vn 1.570796 -1.570793 -1.570795
v 23.099998 -23.099998 -20.020000 0.752941 0.752941 0.752941
vn 1.570796 1.570796 -4.712388
v -20.020000 -20.020000 -20.020000 0.752941 0.752941 0.752941
vn 1.570796 -1.570796 -4.712387
v -20.020000 20.020000 -20.020000 0.752941 0.752941 0.752941
vn 1.570796 4.712389 -1.570796
v 15.400000 23.099998 13.860000 0.752941 0.752941 0.752941
vn 1.570796 1.570796 1.570796
v 15.400000 38.500000 20.020000 0.752941 0.752941 0.752941
vn -1.570796 1.570796 -1.570796
v -15.400000 38.500000 13.860000 0.752941 0.752941 0.752941
vn 1.570796 1.570796 -1.570796
v 15.400000 38.500000 13.860000 0.752941 0.752941 0.752941
# 32 vertices, 0 vertices normals

f 1//1 3//3 2//2
f 2//2 3//3 16//16
f 3//3 1//1 26//26
f 7//7 3//3 26//26
f 4//4 5//5 26//26
f 5//5 6//6 26//26
f 6//6 7//7 26//26
f 7//7 15//15 3//3
f 27//27 10//10 26//26
f 28//28 2//2 9//9
f 1//1 2//2 28//28
f 8//8 28//28 9//9
f 1//1 28//28 27//27
f 1//1 27//27 26//26
f 26//26 10//10 9//9
f 10//10 8//8 9//9
f 2//2 16//16 9//9
f 11//11 16//16 12//12
f 9//9 16//16 11//11
f 9//9 29//29 13//13
f 9//9 13//13 14//14
f 29//29 9//9 11//11
f 5//5 4//4 21//21
f 18//18 3//3 15//15
f 23//23 25//25 15//15
f 17//17 13//13 12//12
f 18//18 17//17 16//16
f 19//19 14//14 13//13
f 17//17 12//12 16//16
f 13//13 30//30 12//12
f 19//19 21//21 4//4
f 16//16 3//3 18//18
f 17//17 19//19 13//13
f 4//4 14//14 19//19
f 20//20 12//12 30//30
f 5//5 15//15 25//25
f 21//21 15//15 5//5
f 21//21 18//18 15//15
f 22//22 23//23 7//7
f 7//7 23//23 15//15
f 22//22 7//7 24//24
f 24//24 7//7 6//6
f 25//25 24//24 6//6
f 5//5 25//25 6//6
f 4//4 26//26 9//9
f 14//14 4//4 9//9
f 28//28 17//17 18//18
f 27//27 28//28 18//18
f 8//8 19//19 17//17
f 28//28 8//8 17//17
f 19//19 8//8 21//21
f 21//21 8//8 10//10
f 21//21 10//10 18//18
f 18//18 10//10 27//27
f 13//13 29//29 32//32
f 30//30 13//13 32//32
f 11//11 31//31 29//29
f 29//29 31//31 32//32
f 11//11 12//12 31//31
f 31//31 12//12 20//20
f 31//31 20//20 32//32
f 32//32 20//20 30//30
f 23//23 22//22 24//24
f 25//25 23//23 24//24
# 64 faces, 0 coords texture

# End of File
